<svg width="40" height="40" viewBox="0 0 30 40" fill="none" xmlns="http://www.w3.org/2000/svg">
<path d="M27.7419 0H1.93548C0.868387 0 0 0.868387 0 1.93548V35.4839C0 36.3684 0.6 37.1077 1.41161 37.3381L2.07677 40H6.95548L7.60064 37.4194H22.0768L22.7219 40H27.6006L28.2664 37.3381C29.0774 37.1077 29.6774 36.3684 29.6774 35.4839V1.93548C29.6774 0.868387 28.809 0 27.7419 0ZM28.3871 1.93548V33.5484H27.0968V1.29032H27.7419C28.0974 1.29032 28.3871 1.58 28.3871 1.93548ZM21.2903 12.9032H12.2581C10.4794 12.9032 9.03226 14.3503 9.03226 16.129V33.5484H3.87097V11.6129H25.8064V33.5484H24.5161V16.129C24.5161 14.3503 23.069 12.9032 21.2903 12.9032ZM23.2258 30.9677H10.3226V29.6774H23.2258V30.9677ZM10.3226 21.9355H13.4271C13.1994 22.3277 13.04 22.7626 12.9619 23.2258H10.3226V21.9355ZM19.3548 23.871C19.3548 25.2942 18.1974 26.4516 16.7742 26.4516C15.351 26.4516 14.1935 25.2942 14.1935 23.871C14.1935 22.4477 15.351 21.2903 16.7742 21.2903C18.1974 21.2903 19.3548 22.4477 19.3548 23.871ZM10.3226 24.5161H12.9613C13.0394 24.9794 13.1994 25.4142 13.4264 25.8064H10.3226V24.5161ZM23.2258 28.3871H10.3226V27.0968H14.6387C15.2516 27.5039 15.9852 27.7419 16.7742 27.7419C17.5632 27.7419 18.2968 27.5039 18.9097 27.0968H23.2258V28.3871ZM23.2258 25.8064H20.1213C20.349 25.4142 20.5084 24.9794 20.5864 24.5161H23.2258V25.8064ZM23.2258 23.2258H20.5871C20.509 22.7626 20.349 22.3277 20.1219 21.9355H23.2258V23.2258ZM23.2258 20.6452H18.9097C18.2968 20.2381 17.5632 20 16.7742 20C15.9852 20 15.2516 20.2381 14.6387 20.6452H10.3226V19.3548H23.2258V20.6452ZM23.2258 18.0645H10.3226V16.7742H23.2258V18.0645ZM10.4413 15.4839C10.7084 14.7348 11.4181 14.1935 12.2581 14.1935H21.2903C22.1303 14.1935 22.84 14.7348 23.1071 15.4839H10.4413ZM3.87097 1.29032H25.8064V2.58065H3.87097V1.29032ZM1.93548 1.29032H2.58064V9.03226H3.87097V3.87097H25.8064V10.3226H2.58064V33.5484H1.29032V1.93548C1.29032 1.58 1.58 1.29032 1.93548 1.29032ZM5.94774 38.7097H3.08452L2.76193 37.4194H6.27032L5.94774 38.7097ZM23.7297 38.7097L23.4071 37.4194H26.9155L26.5929 38.7097H23.7297ZM27.7419 36.129H1.93548C1.58 36.129 1.29032 35.8394 1.29032 35.4839V34.8387H21.9355V33.5484H10.3226V32.2581H23.2258V34.8387H28.3871V35.4839C28.3871 35.8394 28.0974 36.129 27.7419 36.129Z" fill="#AFAFAF"/>
<path d="M24.5162 5.16113H12.9033V9.0321H24.5162V5.16113ZM23.2259 7.74178H14.1936V6.45146H23.2259V7.74178Z" fill="#AFAFAF"/>
<path d="M6.45146 5.16113H5.16113V6.45145H6.45146V5.16113Z" fill="#AFAFAF"/>
<path d="M9.03251 5.16113H7.74219V6.45145H9.03251V5.16113Z" fill="#AFAFAF"/>
<path d="M11.6126 5.16113H10.3223V6.45145H11.6126V5.16113Z" fill="#AFAFAF"/>
<path d="M6.45146 7.7417H5.16113V9.03202H6.45146V7.7417Z" fill="#AFAFAF"/>
<path d="M9.03251 7.7417H7.74219V9.03202H9.03251V7.7417Z" fill="#AFAFAF"/>
<path d="M11.6126 7.7417H10.3223V9.03202H11.6126V7.7417Z" fill="#AFAFAF"/>
<path d="M7.74178 14.1934H5.16113V15.4837H7.74178V14.1934Z" fill="#AFAFAF"/>
<path d="M7.74178 16.7739H5.16113V18.0642H7.74178V16.7739Z" fill="#AFAFAF"/>
<path d="M7.74178 19.355H5.16113V20.6453H7.74178V19.355Z" fill="#AFAFAF"/>
<path d="M7.74178 21.9355H5.16113V23.2259H7.74178V21.9355Z" fill="#AFAFAF"/>
</svg>
