<svg width="40" height="31" viewBox="0 0 40 31" fill="none" xmlns="http://www.w3.org/2000/svg">
<path d="M38.0645 0.799805H1.93548C0.868387 0.799805 0 1.66819 0 2.73529V28.5417C0 29.6088 0.868387 30.4772 1.93548 30.4772H38.0645C39.1316 30.4772 40 29.6088 40 28.5417V2.73529C40 1.66819 39.1316 0.799805 38.0645 0.799805ZM38.7097 2.73529V8.27464L32.5252 2.09013H38.0645C38.42 2.09013 38.7097 2.3798 38.7097 2.73529ZM1.93548 2.09013H7.47484L1.29032 8.27464V2.73529C1.29032 2.3798 1.58 2.09013 1.93548 2.09013ZM1.29032 28.5417V23.0024L7.47484 29.1869H1.93548C1.58 29.1869 1.29032 28.8979 1.29032 28.5417ZM9.29935 29.1869L1.29032 21.1779V10.0992L9.29935 2.09013H13.9594C8.78064 4.40819 5.16129 9.6069 5.16129 15.6385C5.16129 21.6701 8.78064 26.8688 13.9594 29.1869H9.29935ZM20 2.09013C27.471 2.09013 33.5484 8.16755 33.5484 15.6385C33.5484 23.1088 27.471 29.1869 20 29.1869C12.529 29.1869 6.45161 23.1088 6.45161 15.6385C6.45161 8.16755 12.529 2.09013 20 2.09013ZM34.8387 15.6385C34.8387 9.6069 31.2194 4.40819 26.0406 2.09013H30.7006L38.7097 10.0992V21.1779L30.7006 29.1869H26.0406C31.2194 26.8688 34.8387 21.6701 34.8387 15.6385ZM38.0645 29.1869H32.5252L38.7097 23.0024V28.5417C38.7097 28.8979 38.42 29.1869 38.0645 29.1869Z" fill="#AFAFAF"/>
<path d="M36.7741 4.67069C37.1304 4.67069 37.4192 4.38184 37.4192 4.02553C37.4192 3.66922 37.1304 3.38037 36.7741 3.38037C36.4178 3.38037 36.1289 3.66922 36.1289 4.02553C36.1289 4.38184 36.4178 4.67069 36.7741 4.67069Z" fill="#AFAFAF"/>
<path d="M3.22622 4.67069C3.58253 4.67069 3.87138 4.38184 3.87138 4.02553C3.87138 3.66922 3.58253 3.38037 3.22622 3.38037C2.8699 3.38037 2.58105 3.66922 2.58105 4.02553C2.58105 4.38184 2.8699 4.67069 3.22622 4.67069Z" fill="#AFAFAF"/>
<path d="M3.22622 27.8968C3.58253 27.8968 3.87138 27.6079 3.87138 27.2516C3.87138 26.8953 3.58253 26.6064 3.22622 26.6064C2.8699 26.6064 2.58105 26.8953 2.58105 27.2516C2.58105 27.6079 2.8699 27.8968 3.22622 27.8968Z" fill="#AFAFAF"/>
<path d="M36.7741 27.8968C37.1304 27.8968 37.4192 27.6079 37.4192 27.2516C37.4192 26.8953 37.1304 26.6064 36.7741 26.6064C36.4178 26.6064 36.1289 26.8953 36.1289 27.2516C36.1289 27.6079 36.4178 27.8968 36.7741 27.8968Z" fill="#AFAFAF"/>
<path d="M18.0645 15.6386C18.0645 16.7057 18.9328 17.5741 19.9999 17.5741C21.067 17.5741 21.9354 16.7057 21.9354 15.6386C21.9354 14.5715 21.067 13.7031 19.9999 13.7031C18.9328 13.7031 18.0645 14.5715 18.0645 15.6386ZM20.6451 15.6386C20.6451 15.9941 20.3554 16.2838 19.9999 16.2838C19.6445 16.2838 19.3548 15.9941 19.3548 15.6386C19.3548 15.2831 19.6445 14.9934 19.9999 14.9934C20.3554 14.9934 20.6451 15.2831 20.6451 15.6386Z" fill="#AFAFAF"/>
<path d="M9.75574 18.8642C10.2938 18.8642 10.7996 18.6552 11.1796 18.2746C12.357 17.0971 13.8919 16.412 15.539 16.3055C15.5912 16.6559 15.6815 16.9926 15.8093 17.312C13.8738 17.9081 12.117 18.9597 10.6925 20.3849C10.2544 20.823 10.0125 21.4055 10.0125 22.0255C10.0125 22.6455 10.2544 23.2281 10.6925 23.6662L12.1899 25.1636C12.5822 25.5559 13.0977 25.752 13.6138 25.752C14.1299 25.752 14.6454 25.5559 15.0383 25.1636C15.4183 24.783 15.628 24.2771 15.628 23.7397C15.628 22.0739 16.2293 20.5036 17.319 19.2636C17.597 19.47 17.8977 19.6481 18.2196 19.7875C17.2725 21.5771 16.7744 23.5617 16.7744 25.5759C16.7744 26.8559 17.8151 27.8965 19.0951 27.8965H21.2125C22.3228 27.8965 23.2261 26.9933 23.2261 25.883C23.2261 25.3526 23.0112 24.8339 22.6364 24.4591C21.459 23.2817 20.7738 21.7462 20.6673 20.0997C21.017 20.0475 21.3544 19.9571 21.6738 19.8294C22.2706 21.7649 23.3215 23.521 24.7461 24.9462C25.1841 25.3849 25.7673 25.6262 26.3867 25.6262C27.0061 25.6262 27.5893 25.3849 28.0273 24.9462L29.5241 23.4494C29.9048 23.0694 30.1144 22.5636 30.1144 22.0255C30.1144 21.4875 29.9048 20.9817 29.5241 20.6017C29.1441 20.221 28.6383 20.012 28.1002 20.012C26.4344 20.012 24.8648 19.4107 23.6248 18.321C23.8312 18.043 24.0093 17.7423 24.148 17.4204C25.9383 18.3662 27.9235 18.8642 29.9377 18.8642C31.2177 18.8642 32.2583 17.8236 32.2583 16.5436V14.4262C32.2583 13.3159 31.3551 12.4126 30.2448 12.4126C29.7067 12.4126 29.2009 12.6223 28.8209 13.0023C27.6435 14.1797 26.1086 14.8649 24.4615 14.9713C24.4093 14.621 24.319 14.2842 24.1912 13.9649C26.1267 13.3681 27.8835 12.3171 29.308 10.892C29.7461 10.4539 29.988 9.87134 29.988 9.25134C29.988 8.63134 29.7467 8.04876 29.308 7.61069L27.8112 6.11392C27.0506 5.35327 25.7241 5.35327 24.9635 6.11392C24.5828 6.49392 24.3732 6.99973 24.3732 7.53844C24.3732 9.20424 23.7719 10.7739 22.6822 12.0139C22.4041 11.8075 22.1035 11.6294 21.7815 11.4907C22.728 9.69973 23.2261 7.71521 23.2261 5.70102C23.2261 4.42102 22.1854 3.38037 20.9054 3.38037H18.788C17.6777 3.38037 16.7744 4.2836 16.7744 5.39392C16.7744 5.93198 16.9841 6.43779 17.3641 6.81779C18.5415 7.99521 19.2267 9.53005 19.3332 11.1771C18.9835 11.2294 18.6461 11.3197 18.3267 11.4475C17.7306 9.51198 16.679 7.75586 15.2538 6.33069C14.3783 5.45456 12.8486 5.45392 11.9725 6.33069L10.4757 7.82747C10.0951 8.20811 9.88541 8.71392 9.88541 9.25198C9.88541 9.7894 10.0951 10.2959 10.4757 10.6759C10.8557 11.0559 11.3615 11.2655 11.8996 11.2655C13.5654 11.2655 15.1351 11.8668 16.3751 12.9565C16.1686 13.2346 15.9906 13.5352 15.8519 13.8571C14.0622 12.9107 12.077 12.4126 10.0628 12.4126C8.78283 12.4126 7.74219 13.4533 7.74219 14.7333V16.8507C7.74219 17.961 8.64541 18.8642 9.75574 18.8642ZM14.337 23.7397C14.337 23.9333 14.2615 24.1146 14.1254 24.2513C13.8428 24.5339 13.3848 24.5339 13.1022 24.2513L11.6048 22.7539C11.4099 22.5591 11.3028 22.301 11.3028 22.0255C11.3028 21.75 11.4099 21.492 11.6048 21.2971C12.8932 20.0094 14.4841 19.0604 16.239 18.5288C15.0073 19.9842 14.337 21.81 14.337 23.7397ZM21.9357 25.883C21.9357 26.2817 21.6112 26.6062 21.2125 26.6062H19.0951C18.5267 26.6062 18.0648 26.1442 18.0648 25.5759C18.0648 23.7546 18.519 21.9584 19.3835 20.341C19.5428 22.2417 20.3596 24.0075 21.7235 25.3713C21.8583 25.5062 21.9357 25.6926 21.9357 25.883ZM28.6125 21.5133C28.7493 21.65 28.8248 21.8313 28.8248 22.0249C28.8248 22.2184 28.7493 22.3997 28.6125 22.5365L27.1151 24.0333C26.7261 24.423 26.048 24.423 25.6583 24.0333C24.3706 22.7455 23.4215 21.1539 22.8893 19.3991C24.3461 20.63 26.1719 21.301 28.1009 21.301C28.2944 21.3017 28.4757 21.3771 28.6125 21.5133ZM29.7332 13.9146C29.8699 13.7784 30.0512 13.703 30.2448 13.703C30.6435 13.703 30.968 14.0275 30.968 14.4262V16.5436C30.968 17.112 30.5061 17.5739 29.9377 17.5739C28.1157 17.5739 26.3196 17.1197 24.7028 16.2552C26.6035 16.0959 28.3693 15.2791 29.7332 13.9146ZM25.6635 7.53779C25.6635 7.34424 25.7383 7.16231 25.8751 7.02618C26.0119 6.8894 26.1938 6.81392 26.3867 6.81392C26.5802 6.81392 26.7615 6.8894 26.8983 7.02618L28.3957 8.52295C28.5906 8.71779 28.6977 8.9765 28.6977 9.25134C28.6977 9.52618 28.5906 9.78489 28.3957 9.97973C27.1073 11.2675 25.5164 12.2165 23.7615 12.7488C24.9925 11.2926 25.6635 9.46682 25.6635 7.53779ZM23.2261 15.6384C23.2261 17.4171 21.779 18.8642 20.0002 18.8642C18.2215 18.8642 16.7744 17.4171 16.7744 15.6384C16.7744 13.8597 18.2215 12.4126 20.0002 12.4126C21.779 12.4126 23.2261 13.8597 23.2261 15.6384ZM18.0648 5.39392C18.0648 4.99521 18.3893 4.67069 18.788 4.67069H20.9054C21.4738 4.67069 21.9357 5.13263 21.9357 5.70102C21.9357 7.52231 21.4815 9.31844 20.617 10.9359C20.4577 9.03521 19.6409 7.27005 18.277 5.90618C18.1403 5.76876 18.0648 5.58747 18.0648 5.39392ZM11.388 9.7636C11.2512 9.62682 11.1757 9.44489 11.1757 9.25198C11.1757 9.05844 11.2512 8.87715 11.388 8.74037L12.8848 7.24295C13.0796 7.04811 13.3383 6.94102 13.6132 6.94102C13.888 6.94102 14.1467 7.04811 14.3415 7.24295C15.6299 8.53134 16.579 10.1223 17.1106 11.8771C15.6538 10.6455 13.828 9.97521 11.899 9.97521C11.7061 9.97521 11.5248 9.89972 11.388 9.7636ZM9.03251 14.7333C9.03251 14.1649 9.49445 13.703 10.0628 13.703C11.8848 13.703 13.6809 14.1571 15.2977 15.0217C13.397 15.181 11.6312 15.9978 10.268 17.3617C10.1306 17.4991 9.94928 17.5739 9.75574 17.5739C9.35703 17.5739 9.03251 17.2494 9.03251 16.8507V14.7333Z" fill="#AFAFAF"/>
</svg>
