<svg width="40" height="20" viewBox="0 0 40 20" fill="none" xmlns="http://www.w3.org/2000/svg">
<path d="M40 7.05171V0.600098H0V7.05171H1.93548V8.34203H0V12.213H1.93548V13.5033H0V19.9549H14.8387V16.7291C14.8387 16.373 15.1284 16.084 15.4839 16.084C15.8394 16.084 16.129 16.373 16.129 16.7291V19.9549H40V13.5033H38.0645V12.213H40V8.34203H38.0645V7.05171H40ZM1.29032 17.3743H2.58065V18.6646H1.29032V17.3743ZM3.87097 18.6646V17.3743H13.5484V18.6646H3.87097ZM17.4194 17.3743H36.129V18.6646H17.4194V17.3743ZM37.4194 18.6646V17.3743H38.7097V18.6646H37.4194ZM38.0645 9.63236H38.7097V10.9227H38.0645C37.3529 10.9227 36.7742 11.5014 36.7742 12.213V13.5033C36.7742 14.2149 37.3529 14.7936 38.0645 14.7936H38.7097V16.084H17.3006C17.0335 15.3349 16.3239 14.7936 15.4839 14.7936C14.6439 14.7936 13.9342 15.3349 13.6671 16.084H1.29032V14.7936H1.93548C2.6471 14.7936 3.22581 14.2149 3.22581 13.5033V12.213C3.22581 11.5014 2.6471 10.9227 1.93548 10.9227H1.29032V9.63236H1.93548C2.6471 9.63236 3.22581 9.05365 3.22581 8.34203V7.05171C3.22581 6.3401 2.6471 5.76139 1.93548 5.76139H1.29032V1.89042H38.7097V5.76139H38.0645C37.3529 5.76139 36.7742 6.3401 36.7742 7.05171V8.34203C36.7742 9.05365 37.3529 9.63236 38.0645 9.63236Z" fill="#AFAFAF"/>
<path d="M31.6133 14.7936H35.4842V3.18066H31.6133V14.7936ZM32.9036 4.47099H34.1939V13.5032H32.9036V4.47099Z" fill="#AFAFAF"/>
<path d="M26.4521 14.7936H30.3231V3.18066H26.4521V14.7936ZM27.7425 4.47099H29.0328V13.5032H27.7425V4.47099Z" fill="#AFAFAF"/>
<path d="M21.29 14.7936H25.161V3.18066H21.29V14.7936ZM22.5804 4.47099H23.8707V13.5032H22.5804V4.47099Z" fill="#AFAFAF"/>
<path d="M4.5166 9.63228H20.0005V3.18066H4.5166V9.63228ZM5.80692 4.47099H18.7102V8.34196H5.80692V4.47099Z" fill="#AFAFAF"/>
<path d="M17.4193 5.76123H7.09668V7.05155H17.4193V5.76123Z" fill="#AFAFAF"/>
<path d="M7.09725 10.9229H4.5166V12.2132H7.09725V10.9229Z" fill="#AFAFAF"/>
<path d="M10.9674 10.9229H8.38672V12.2132H10.9674V10.9229Z" fill="#AFAFAF"/>
<path d="M14.8385 10.9229H12.2578V12.2132H14.8385V10.9229Z" fill="#AFAFAF"/>
<path d="M7.09725 13.5034H4.5166V14.7937H7.09725V13.5034Z" fill="#AFAFAF"/>
<path d="M10.9674 13.5034H8.38672V14.7937H10.9674V13.5034Z" fill="#AFAFAF"/>
<path d="M18.7096 10.9229H16.1289V12.2132H18.7096V10.9229Z" fill="#AFAFAF"/>
</svg>
