<svg width="40" height="31" viewBox="0 0 40 31" fill="none" xmlns="http://www.w3.org/2000/svg">
<path d="M40 11.7675H38.7097V2.73529C38.7097 1.66819 37.8413 0.799805 36.7742 0.799805H3.22581C2.15871 0.799805 1.29032 1.66819 1.29032 2.73529V5.96109H0V11.1224H1.29032V13.703H0V18.8643H1.29032V22.7353H1.93548C3.00258 22.7353 3.87097 23.6037 3.87097 24.6708C3.87097 25.7379 3.00258 26.6063 1.93548 26.6063H1.29032V28.5417C1.29032 29.6088 2.15871 30.4772 3.22581 30.4772H36.7742C37.8413 30.4772 38.7097 29.6088 38.7097 28.5417V19.5095H40V11.7675ZM1.29032 7.25142H2.58065V9.83206H1.29032V7.25142ZM1.29032 14.9934H2.58065V17.574H1.29032V14.9934ZM37.4194 28.5417C37.4194 28.8972 37.1297 29.1869 36.7742 29.1869H3.22581C2.87032 29.1869 2.58065 28.8972 2.58065 28.5417V27.8314C4.05097 27.5321 5.16129 26.2288 5.16129 24.6708C5.16129 23.1127 4.05097 21.8095 2.58065 21.5101V18.8643H3.87097V13.703H2.58065V11.1224H3.87097V5.96109H2.58065V2.73529C2.58065 2.3798 2.87032 2.09013 3.22581 2.09013H36.7742C37.1297 2.09013 37.4194 2.3798 37.4194 2.73529V11.7675H36.129V19.5095H37.4194V28.5417ZM38.7097 18.2192H37.4194V13.0579H38.7097V18.2192Z" fill="#AFAFAF"/>
<path d="M25.806 7.25126H24.5157V5.96094H23.2253V7.25126H21.935V5.96094H20.6447V7.25126H19.3544V5.96094H18.064V7.25126H16.7737V8.54158H15.4834V9.83191H16.7737V11.1222H15.4834V12.4126H16.7737V13.7029H15.4834V14.9932H16.7737V16.2835H18.064V17.5738H19.3544V16.2835H20.6447V17.5738H21.935V16.2835H23.2253V17.5738H24.5157V16.2835H25.806V14.9932H27.0963V13.7029H25.806V12.4126H27.0963V11.1222H25.806V9.83191H27.0963V8.54158H25.806V7.25126ZM24.5157 14.9932H18.064V8.54158H24.5157V14.9932Z" fill="#AFAFAF"/>
<path d="M12.9033 20.1546H29.6775V3.38037H12.9033V20.1546ZM14.1936 4.67069H28.3872V18.8642H14.1936V4.67069Z" fill="#AFAFAF"/>
<path d="M23.2255 9.83203H19.3545V11.1224H23.2255V9.83203Z" fill="#AFAFAF"/>
<path d="M23.2255 12.4126H19.3545V13.7029H23.2255V12.4126Z" fill="#AFAFAF"/>
<path d="M34.8382 3.38037H33.5479V27.8965H34.8382V3.38037Z" fill="#AFAFAF"/>
<path d="M32.2581 3.38037H30.9678V27.8965H32.2581V3.38037Z" fill="#AFAFAF"/>
<path d="M7.74178 3.38037H5.16113V4.67069H7.74178V3.38037Z" fill="#AFAFAF"/>
<path d="M11.6129 3.38037H9.03223V4.67069H11.6129V3.38037Z" fill="#AFAFAF"/>
<path d="M7.74178 5.96094H5.16113V7.25126H7.74178V5.96094Z" fill="#AFAFAF"/>
<path d="M11.6129 5.96094H9.03223V7.25126H11.6129V5.96094Z" fill="#AFAFAF"/>
<path d="M7.74178 13.7028C9.165 13.7028 10.3224 12.5454 10.3224 11.1221C10.3224 9.69892 9.165 8.5415 7.74178 8.5415C6.31855 8.5415 5.16113 9.69892 5.16113 11.1221C5.16113 12.5454 6.31855 13.7028 7.74178 13.7028ZM7.74178 9.83183C8.45339 9.83183 9.0321 10.4105 9.0321 11.1221C9.0321 11.8338 8.45339 12.4125 7.74178 12.4125C7.03017 12.4125 6.45146 11.8338 6.45146 11.1221C6.45146 10.4105 7.03017 9.83183 7.74178 9.83183Z" fill="#AFAFAF"/>
<path d="M11.6127 14.9932H5.16113V20.1545H11.6127V14.9932ZM10.3224 18.8641H6.45146V16.2835H10.3224V18.8641Z" fill="#AFAFAF"/>
<path d="M10.3223 27.8964H29.6771V21.4448H10.3223V27.8964ZM11.6126 25.3158H12.9029V26.6061H11.6126V25.3158ZM19.3545 25.3158H20.6448V26.6061H19.3545V25.3158ZM18.0642 26.6061H16.7739V25.3158H18.0642V26.6061ZM21.9352 25.3158H23.2255V26.6061H21.9352V25.3158ZM24.5158 25.3158H25.8061V26.6061H24.5158V25.3158ZM24.5158 24.0255V22.7351H25.8061V24.0255H24.5158ZM23.2255 24.0255H21.9352V22.7351H23.2255V24.0255ZM20.6448 24.0255H19.3545V22.7351H20.6448V24.0255ZM18.0642 24.0255H16.7739V22.7351H18.0642V24.0255ZM15.4836 24.0255H14.1932V22.7351H15.4836V24.0255ZM15.4836 25.3158V26.6061H14.1932V25.3158H15.4836ZM27.0965 26.6061V25.3158H28.3868V26.6061H27.0965ZM28.3868 24.0255H27.0965V22.7351H28.3868V24.0255ZM12.9029 22.7351V24.0255H11.6126V22.7351H12.9029Z" fill="#AFAFAF"/>
<path d="M9.03279 21.4448H6.45215V22.7351H9.03279V21.4448Z" fill="#AFAFAF"/>
<path d="M9.03279 24.0259H6.45215V25.3162H9.03279V24.0259Z" fill="#AFAFAF"/>
<path d="M9.03279 26.6064H6.45215V27.8968H9.03279V26.6064Z" fill="#AFAFAF"/>
</svg>
