<svg width="36" height="40" viewBox="0 0 36 40" fill="none" xmlns="http://www.w3.org/2000/svg">
<path d="M27.7641 32.2578L30.0777 29.9443V10.0552L27.7641 7.7417H7.87507L5.56152 10.0552V29.9443L7.87507 32.2578H27.7641ZM6.85185 10.5894L8.40927 9.03202H27.2299L28.7873 10.5894V29.4101L27.2299 30.9675H8.40927L6.85185 29.4101V10.5894Z" fill="#AFAFAF"/>
<path d="M2.71394 0L0.400391 2.31355V40H35.2391V0H2.71394ZM33.9488 38.7097H1.69071V2.84774L3.24813 1.29032H33.9488V38.7097Z" fill="#AFAFAF"/>
<path d="M3.62661 3.87089C3.98292 3.87089 4.27177 3.58204 4.27177 3.22573C4.27177 2.86942 3.98292 2.58057 3.62661 2.58057C3.27029 2.58057 2.98145 2.86942 2.98145 3.22573C2.98145 3.58204 3.27029 3.87089 3.62661 3.87089Z" fill="#AFAFAF"/>
<path d="M32.0133 3.87089C32.3696 3.87089 32.6585 3.58204 32.6585 3.22573C32.6585 2.86942 32.3696 2.58057 32.0133 2.58057C31.657 2.58057 31.3682 2.86942 31.3682 3.22573C31.3682 3.58204 31.657 3.87089 32.0133 3.87089Z" fill="#AFAFAF"/>
<path d="M3.62661 37.4192C3.98292 37.4192 4.27177 37.1304 4.27177 36.7741C4.27177 36.4178 3.98292 36.1289 3.62661 36.1289C3.27029 36.1289 2.98145 36.4178 2.98145 36.7741C2.98145 37.1304 3.27029 37.4192 3.62661 37.4192Z" fill="#AFAFAF"/>
<path d="M32.0133 37.4192C32.3696 37.4192 32.6585 37.1304 32.6585 36.7741C32.6585 36.4178 32.3696 36.1289 32.0133 36.1289C31.657 36.1289 31.3682 36.4178 31.3682 36.7741C31.3682 37.1304 31.657 37.4192 32.0133 37.4192Z" fill="#AFAFAF"/>
<path d="M9.4329 28.3873H10.7232V29.6776H12.0135V28.3873H13.3039V29.6776H14.5942V28.3873H15.8845V29.6776H17.1748V28.3873H18.4652V29.6776H19.7555V28.3873H21.0458V29.6776H22.3361V28.3873H23.6264V29.6776H24.9168V28.3873H26.2071V27.0969H27.4974V25.8066H26.2071V24.5163H27.4974V23.226H26.2071V21.9357H27.4974V20.6453H26.2071V19.355H27.4974V18.0647H26.2071V16.7744H27.4974V15.484H26.2071V14.1937H27.4974V12.9034H26.2071V11.6131H24.9168V10.3228H23.6264V11.6131H22.3361V10.3228H21.0458V11.6131H19.7555V10.3228H18.4652V11.6131H17.1748V10.3228H15.8845V11.6131H14.5942V10.3228H13.3039V11.6131H12.0135V10.3228H10.7232V11.6131H9.4329V12.9034H8.14258V14.1937H9.4329V15.484H8.14258V16.7744H9.4329V18.0647H8.14258V19.355H9.4329V20.6453H8.14258V21.9357H9.4329V23.226H8.14258V24.5163H9.4329V25.8066H8.14258V27.0969H9.4329V28.3873ZM10.7232 12.9034H24.9168V27.0969H10.7232V12.9034Z" fill="#AFAFAF"/>
<path d="M15.0186 19.4443C15.2579 20.1624 15.927 20.645 16.6837 20.645H18.9547C19.7115 20.645 20.3805 20.1624 20.6199 19.445L21.6005 16.5043C21.6605 16.325 21.6908 16.1379 21.6908 15.9488C21.6908 14.9811 20.9031 14.1934 19.9353 14.1934H15.7037C14.736 14.1934 13.9482 14.9811 13.9482 15.9488C13.9482 16.1379 13.9786 16.325 14.0386 16.5043L15.0186 19.4443ZM15.7037 15.4837H19.9353C20.1915 15.4837 20.3999 15.6921 20.3999 15.9488C20.3999 15.9992 20.3915 16.0482 20.376 16.0959L19.3953 19.0372C19.3321 19.2269 19.1547 19.3546 18.9547 19.3546H16.6837C16.4831 19.3546 16.3063 19.2269 16.2424 19.0366L15.2618 16.0959C15.247 16.0482 15.2386 15.9985 15.2386 15.9488C15.2386 15.6921 15.447 15.4837 15.7037 15.4837Z" fill="#AFAFAF"/>
<path d="M13.304 21.9355H12.0137V23.2259H13.304V21.9355Z" fill="#AFAFAF"/>
<path d="M23.626 21.9355H14.5938V23.2259H23.626V21.9355Z" fill="#AFAFAF"/>
<path d="M23.6263 24.5161H22.3359V25.8064H23.6263V24.5161Z" fill="#AFAFAF"/>
<path d="M21.0459 24.5161H12.0137V25.8064H21.0459V24.5161Z" fill="#AFAFAF"/>
<path d="M6.85184 2.58057H5.56152V3.87089H6.85184V2.58057Z" fill="#AFAFAF"/>
<path d="M9.4329 2.58057H8.14258V3.87089H9.4329V2.58057Z" fill="#AFAFAF"/>
<path d="M12.013 2.58057H10.7227V3.87089H12.013V2.58057Z" fill="#AFAFAF"/>
<path d="M14.594 2.58057H13.3037V3.87089H14.594V2.58057Z" fill="#AFAFAF"/>
<path d="M17.1741 2.58057H15.8838V3.87089H17.1741V2.58057Z" fill="#AFAFAF"/>
<path d="M19.7552 2.58057H18.4648V3.87089H19.7552V2.58057Z" fill="#AFAFAF"/>
<path d="M22.3362 2.58057H21.0459V3.87089H22.3362V2.58057Z" fill="#AFAFAF"/>
<path d="M24.9163 2.58057H23.626V3.87089H24.9163V2.58057Z" fill="#AFAFAF"/>
<path d="M27.4974 2.58057H26.207V3.87089H27.4974V2.58057Z" fill="#AFAFAF"/>
<path d="M30.0774 2.58057H28.7871V3.87089H30.0774V2.58057Z" fill="#AFAFAF"/>
<path d="M6.85184 36.1289H5.56152V37.4192H6.85184V36.1289Z" fill="#AFAFAF"/>
<path d="M9.4329 36.1289H8.14258V37.4192H9.4329V36.1289Z" fill="#AFAFAF"/>
<path d="M12.013 36.1289H10.7227V37.4192H12.013V36.1289Z" fill="#AFAFAF"/>
<path d="M14.594 36.1289H13.3037V37.4192H14.594V36.1289Z" fill="#AFAFAF"/>
<path d="M17.1741 36.1289H15.8838V37.4192H17.1741V36.1289Z" fill="#AFAFAF"/>
<path d="M19.7552 36.1289H18.4648V37.4192H19.7552V36.1289Z" fill="#AFAFAF"/>
<path d="M22.3362 36.1289H21.0459V37.4192H22.3362V36.1289Z" fill="#AFAFAF"/>
<path d="M24.9163 36.1289H23.626V37.4192H24.9163V36.1289Z" fill="#AFAFAF"/>
<path d="M27.4974 36.1289H26.207V37.4192H27.4974V36.1289Z" fill="#AFAFAF"/>
<path d="M30.0774 36.1289H28.7871V37.4192H30.0774V36.1289Z" fill="#AFAFAF"/>
<path d="M15.2388 5.16113H12.6582V6.45145H15.2388V5.16113Z" fill="#AFAFAF"/>
<path d="M19.1099 5.16113H16.5293V6.45145H19.1099V5.16113Z" fill="#AFAFAF"/>
<path d="M22.981 5.16113H20.4004V6.45145H22.981V5.16113Z" fill="#AFAFAF"/>
<path d="M19.1099 33.5483H16.5293V34.8387H19.1099V33.5483Z" fill="#AFAFAF"/>
<path d="M22.981 33.5483H20.4004V34.8387H22.981V33.5483Z" fill="#AFAFAF"/>
<path d="M15.2388 33.5483H12.6582V34.8387H15.2388V33.5483Z" fill="#AFAFAF"/>
<path d="M32.6585 33.5483H31.3682V34.8387H32.6585V33.5483Z" fill="#AFAFAF"/>
<path d="M32.6585 30.9678H31.3682V32.2581H32.6585V30.9678Z" fill="#AFAFAF"/>
<path d="M32.6585 28.3872H31.3682V29.6775H32.6585V28.3872Z" fill="#AFAFAF"/>
<path d="M32.6585 25.8066H31.3682V27.097H32.6585V25.8066Z" fill="#AFAFAF"/>
<path d="M32.6585 23.2261H31.3682V24.5164H32.6585V23.2261Z" fill="#AFAFAF"/>
<path d="M32.6585 20.645H31.3682V21.9353H32.6585V20.645Z" fill="#AFAFAF"/>
<path d="M32.6585 18.0645H31.3682V19.3548H32.6585V18.0645Z" fill="#AFAFAF"/>
<path d="M32.6585 15.4839H31.3682V16.7742H32.6585V15.4839Z" fill="#AFAFAF"/>
<path d="M32.6585 12.9033H31.3682V14.1936H32.6585V12.9033Z" fill="#AFAFAF"/>
<path d="M32.6585 10.3228H31.3682V11.6131H32.6585V10.3228Z" fill="#AFAFAF"/>
<path d="M32.6585 7.7417H31.3682V9.03202H32.6585V7.7417Z" fill="#AFAFAF"/>
<path d="M32.6585 5.16113H31.3682V6.45145H32.6585V5.16113Z" fill="#AFAFAF"/>
<path d="M4.27177 33.5483H2.98145V34.8387H4.27177V33.5483Z" fill="#AFAFAF"/>
<path d="M4.27177 30.9678H2.98145V32.2581H4.27177V30.9678Z" fill="#AFAFAF"/>
<path d="M4.27177 28.3872H2.98145V29.6775H4.27177V28.3872Z" fill="#AFAFAF"/>
<path d="M4.27177 25.8066H2.98145V27.097H4.27177V25.8066Z" fill="#AFAFAF"/>
<path d="M4.27177 23.2261H2.98145V24.5164H4.27177V23.2261Z" fill="#AFAFAF"/>
<path d="M4.27177 20.645H2.98145V21.9353H4.27177V20.645Z" fill="#AFAFAF"/>
<path d="M4.27177 18.0645H2.98145V19.3548H4.27177V18.0645Z" fill="#AFAFAF"/>
<path d="M4.27177 15.4839H2.98145V16.7742H4.27177V15.4839Z" fill="#AFAFAF"/>
<path d="M4.27177 12.9033H2.98145V14.1936H4.27177V12.9033Z" fill="#AFAFAF"/>
<path d="M4.27177 10.3228H2.98145V11.6131H4.27177V10.3228Z" fill="#AFAFAF"/>
<path d="M4.27177 7.7417H2.98145V9.03202H4.27177V7.7417Z" fill="#AFAFAF"/>
<path d="M4.27177 5.16113H2.98145V6.45145H4.27177V5.16113Z" fill="#AFAFAF"/>
</svg>
